<svg width="26" height="26" viewBox="0 0 26 26" fill="none" xmlns="http://www.w3.org/2000/svg">
<path d="M18.2375 0.5H7.7625C3.2125 0.5 0.5 3.2125 0.5 7.7625V18.225C0.5 22.7875 3.2125 25.5 7.7625 25.5H18.225C22.775 25.5 25.4875 22.7875 25.4875 18.2375V7.7625C25.5 3.2125 22.7875 0.5 18.2375 0.5ZM18.075 11.9625L13.6625 16.375C13.475 16.5625 13.2375 16.65 13 16.65C12.7625 16.65 12.525 16.5625 12.3375 16.375L7.925 11.9625C7.5625 11.6 7.5625 11 7.925 10.6375C8.2875 10.275 8.8875 10.275 9.25 10.6375L13 14.3875L16.75 10.6375C17.1125 10.275 17.7125 10.275 18.075 10.6375C18.4375 11 18.4375 11.5875 18.075 11.9625Z" fill="#0A1E36"/>
</svg>
