<svg width="50" height="50" viewBox="0 0 50 50" fill="none" xmlns="http://www.w3.org/2000/svg">
<g clip-path="url(#clip0_384_3767)">
<path d="M33.771 8.66663L42.1043 17V8.66663H33.771ZM42.1043 33.6666L33.771 42H42.1043V33.6666ZM17.1043 42L8.771 33.6666V42H17.1043ZM8.771 17L17.1043 8.66663H8.771V17ZM35.7502 15.0208C30.0627 9.33329 20.8127 9.33329 15.1252 15.0208C9.43766 20.7083 9.43766 29.9583 15.1252 35.6458C20.8127 41.3333 30.0627 41.3333 35.7502 35.6458C41.4377 29.9583 41.4377 20.7291 35.7502 15.0208ZM33.4585 33.3541C29.021 37.7916 21.8543 37.7916 17.4168 33.3541C12.9793 28.9166 12.9793 21.75 17.4168 17.3125C21.8543 12.875 29.021 12.875 33.4585 17.3125C37.896 21.75 37.896 28.9166 33.4585 33.3541Z" fill="#CF6418"/>
</g>
<defs>
<clipPath id="clip0_384_3767">
<rect width="50" height="50" fill="white"/>
</clipPath>
</defs>
</svg>
