<svg width="46" height="50" viewBox="0 0 46 50" fill="none" xmlns="http://www.w3.org/2000/svg">
<path d="M36.835 3.4L33.7725 0H9.655C7.915 0 7.2425 1.29 7.2425 2.2975V11.3725H10.625V4.1325C10.625 3.7475 10.95 3.4225 11.325 3.4225H28.5825C28.9625 3.4225 29.1525 3.49 29.1525 3.8025V15.8525H41.435C41.9175 15.8525 42.105 16.1025 42.105 16.4675V45.8925C42.105 46.5075 41.855 46.6 41.48 46.6H11.325C11.139 46.5955 10.9621 46.5189 10.8315 46.3865C10.7009 46.254 10.6269 46.076 10.625 45.89V43.2H7.265V47.4375C7.22 48.9375 8.02 50 9.655 50H43.15C44.9 50 45.4975 48.7325 45.4975 47.5775V12.9675L44.6225 12.0175L36.835 3.4ZM32.59 3.8L33.5575 4.885L40.0475 12.0175L40.405 12.45H33.7725C33.2725 12.45 32.9558 12.3667 32.8225 12.2C32.6892 12.0367 32.6117 11.7758 32.59 11.4175V3.8ZM29.865 26.6675H41.3075V30.0025H29.8625L29.865 26.6675ZM29.865 20.0025H41.3075V23.335H29.8625L29.865 20.0025ZM29.865 33.335H41.3075V36.67H29.8625L29.865 33.335ZM0.5 14.065V40.7325H26.6625V14.065H0.5ZM13.5825 29.575L11.9825 32.02H13.5825V35H5.54L11.375 26.225L6.205 18.335H10.525L13.585 22.925L16.6425 18.335H20.96L15.78 26.225L21.6225 35H17.14L13.5825 29.575Z" fill="#CF6418"/>
</svg>
