<svg width="12" height="12" viewBox="0 0 12 12" fill="none" xmlns="http://www.w3.org/2000/svg">
<path d="M7.375 11.375H5.125V7.75H4.64999C4.35999 7.75 4.125 7.51501 4.125 7.22501V6.27499C4.125 5.98499 4.35999 5.75 4.64999 5.75H5.125V4.5C5.125 3.465 5.965 2.625 7 2.625H8.35001C8.64001 2.625 8.875 2.85999 8.875 3.14999V4.35001C8.875 4.64001 8.64001 4.875 8.35001 4.875H7.375V5.75H8.315C8.475 5.75 8.62 5.82 8.72 5.94C8.82 6.06 8.86 6.22 8.83 6.375L8.64 7.325C8.59 7.57 8.375 7.745 8.125 7.745H7.375V11.375ZM5.875 10.625H6.625V7H7.94501L8.045 6.5H6.63V4.64999C6.63 4.35999 6.865 4.125 7.155 4.125H8.13V3.375H7C6.38 3.375 5.875 3.88 5.875 4.5V6.5H4.875V7H5.875V10.625Z" fill="#E3312C"/>
<path d="M7.5 11.375H4.5C1.785 11.375 0.625 10.215 0.625 7.5V4.5C0.625 1.785 1.785 0.625 4.5 0.625H7.5C10.215 0.625 11.375 1.785 11.375 4.5V7.5C11.375 10.215 10.215 11.375 7.5 11.375ZM4.5 1.375C2.195 1.375 1.375 2.195 1.375 4.5V7.5C1.375 9.805 2.195 10.625 4.5 10.625H7.5C9.805 10.625 10.625 9.805 10.625 7.5V4.5C10.625 2.195 9.805 1.375 7.5 1.375H4.5Z" fill="#E3312C"/>
</svg>
