<svg width="60" height="61" viewBox="0 0 60 61" fill="none" xmlns="http://www.w3.org/2000/svg">
<path d="M55 53.625H52.5V25.45C52.5 23.9 51.8 22.45 50.575 21.5L47.5 19.1L47.45 12.975C47.45 11.6 46.325 10.5 44.95 10.5H36.425L33.075 7.89999C31.275 6.47499 28.725 6.47499 26.925 7.89999L9.425 21.5C8.2 22.45 7.5 23.9 7.5 25.425L7.375 53.625H5C3.975 53.625 3.125 54.475 3.125 55.5C3.125 56.525 3.975 57.375 5 57.375H55C56.025 57.375 56.875 56.525 56.875 55.5C56.875 54.475 56.025 53.625 55 53.625ZM16.25 32.375V28.625C16.25 27.25 17.375 26.125 18.75 26.125H23.75C25.125 26.125 26.25 27.25 26.25 28.625V32.375C26.25 33.75 25.125 34.875 23.75 34.875H18.75C17.375 34.875 16.25 33.75 16.25 32.375ZM36.25 53.625H23.75V46.75C23.75 44.675 25.425 43 27.5 43H32.5C34.575 43 36.25 44.675 36.25 46.75V53.625ZM43.75 32.375C43.75 33.75 42.625 34.875 41.25 34.875H36.25C34.875 34.875 33.75 33.75 33.75 32.375V28.625C33.75 27.25 34.875 26.125 36.25 26.125H41.25C42.625 26.125 43.75 27.25 43.75 28.625V32.375Z" fill="#F9781D"/>
</svg>
