<svg width="12" height="12" viewBox="0 0 12 12" fill="none" xmlns="http://www.w3.org/2000/svg">
<path d="M7.5 11.375H4.5C1.785 11.375 0.625 10.215 0.625 7.5V4.5C0.625 1.785 1.785 0.625 4.5 0.625H7.5C10.215 0.625 11.375 1.785 11.375 4.5V7.5C11.375 10.215 10.215 11.375 7.5 11.375ZM4.5 1.375C2.195 1.375 1.375 2.195 1.375 4.5V7.5C1.375 9.805 2.195 10.625 4.5 10.625H7.5C9.805 10.625 10.625 9.805 10.625 7.5V4.5C10.625 2.195 9.805 1.375 7.5 1.375H4.5Z" fill="#E3312C"/>
<path d="M6 8.125C4.83 8.125 3.875 7.17 3.875 6C3.875 4.83 4.83 3.875 6 3.875C7.17 3.875 8.125 4.83 8.125 6C8.125 7.17 7.17 8.125 6 8.125ZM6 4.625C5.24 4.625 4.625 5.24 4.625 6C4.625 6.76 5.24 7.375 6 7.375C6.76 7.375 7.375 6.76 7.375 6C7.375 5.24 6.76 4.625 6 4.625Z" fill="#E3312C"/>
<path d="M8.5 3.75044C8.435 3.75044 8.37 3.73544 8.31 3.71044C8.25 3.68544 8.195 3.65044 8.145 3.60544C8.1 3.55544 8.06 3.50044 8.035 3.44044C8.01 3.38044 8 3.31544 8 3.25044C8 3.18544 8.01 3.12044 8.035 3.06044C8.065 2.99544 8.1 2.94544 8.145 2.89544C8.17 2.87544 8.195 2.85044 8.22 2.83544C8.25 2.81544 8.28 2.80044 8.31 2.79044C8.34 2.77544 8.37 2.76544 8.405 2.76044C8.565 2.72544 8.735 2.78044 8.855 2.89544C8.9 2.94544 8.935 2.99544 8.96 3.06044C8.985 3.12044 9 3.18544 9 3.25044C9 3.31544 8.985 3.38044 8.96 3.44044C8.935 3.50044 8.9 3.55544 8.855 3.60544C8.805 3.65044 8.75 3.68544 8.69 3.71044C8.63 3.73544 8.565 3.75044 8.5 3.75044Z" fill="#E3312C"/>
</svg>
