<svg width="50" height="50" viewBox="0 0 50 50" fill="none" xmlns="http://www.w3.org/2000/svg">
<path d="M8.3335 29.1667H13.3231C13.9356 29.1667 14.5397 29.3042 15.0877 29.5709L19.3418 31.6292C19.8897 31.8938 20.4939 32.0313 21.1085 32.0313H23.2793C25.3793 32.0313 27.0835 33.6792 27.0835 35.7125C27.0835 35.7959 27.0272 35.8667 26.946 35.8896L21.6522 37.3542C20.7024 37.6166 19.6895 37.5248 18.8022 37.0959L14.2543 34.8959M16.6668 16.3313C16.6668 11.9729 20.6168 7.6646 23.3877 5.17919C24.1174 4.52589 25.0624 4.16467 26.0418 4.16467C27.0213 4.16467 27.9663 4.52589 28.696 5.17919C31.4668 7.66669 35.4168 11.9709 35.4168 16.3334C35.4168 20.6042 31.8668 25 26.0418 25C20.2168 25 16.6668 20.6042 16.6668 16.3313Z" stroke="#CF6418" stroke-width="3" stroke-linecap="round" stroke-linejoin="round"/>
<path d="M27.0835 34.3751L36.6522 31.4355C37.4853 31.1799 38.3778 31.1939 39.2023 31.4756C40.0269 31.7573 40.7414 32.2923 41.2439 33.0042C42.0127 34.0667 41.7002 35.5917 40.5793 36.2376L24.9231 45.273C24.4335 45.5562 23.8914 45.7368 23.3298 45.8038C22.7682 45.8708 22.1988 45.8227 21.6564 45.6626L8.3335 41.7084" stroke="#CF6418" stroke-width="3" stroke-linecap="round" stroke-linejoin="round"/>
</svg>
