<svg width="70" height="70" viewBox="0 0 70 70" fill="none" xmlns="http://www.w3.org/2000/svg">
<path d="M48.0835 52.5V54H49.5835H62.6668V56.8334H49.5835C47.2036 56.8334 45.2502 54.8799 45.2502 52.5V44.5959V43.6177L44.355 43.2232C42.9862 42.62 41.8916 41.503 41.3105 40.1315L40.65 38.5728L39.1821 39.416L33.6988 42.566L33.6944 42.5685C31.6432 43.7561 28.9728 43.0424 27.7822 40.9869C27.782 40.9866 27.7818 40.9863 27.7816 40.986L23.41 33.4085C23.4097 33.4079 23.4093 33.4072 23.4089 33.4066C22.211 31.3132 22.9458 28.6884 24.9685 27.56L24.9797 27.5537L24.9908 27.5473L48.6927 13.7867C48.6943 13.7857 48.696 13.7848 48.6976 13.7839C49.7736 13.1725 51.0475 13.0105 52.2424 13.333C53.4384 13.6558 54.4585 14.4378 55.0806 15.5089C55.081 15.5097 55.0815 15.5104 55.0819 15.5111L59.104 22.5061L59.1039 22.5061L59.1091 22.515C60.4048 24.733 59.6449 27.5817 57.4023 28.8921C57.4021 28.8922 57.402 28.8922 57.4019 28.8923L51.6564 32.2463L50.133 33.1356L51.2556 34.4963C51.9968 35.3947 52.4585 36.6032 52.4585 37.9167C52.4585 40.2942 51.031 42.3136 48.9757 43.2245L48.0835 43.6199V44.5959V52.5ZM16.2392 51.826L8.23796 37.9723L16.7968 36.7193L21.6117 45.0731L16.2392 51.826Z" stroke="#0A1E36" stroke-width="3"/>
</svg>
