<svg width="14" height="14" viewBox="0 0 14 14" fill="none" xmlns="http://www.w3.org/2000/svg">
<path d="M13 8.67472L10.0569 7.35535L10.0456 7.35035C9.85432 7.26788 9.6454 7.23467 9.43795 7.25378C9.2305 7.27289 9.03115 7.34369 8.85813 7.45973C8.83387 7.47596 8.8105 7.49348 8.78813 7.51223L7.39375 8.69972C6.58125 8.2591 5.74188 7.4266 5.30063 6.6241L6.49188 5.20785C6.511 5.18497 6.52874 5.16097 6.545 5.13598C6.65799 4.96357 6.72659 4.7659 6.74469 4.56057C6.76279 4.35524 6.72984 4.14861 6.64875 3.9591C6.64682 3.95547 6.64515 3.95171 6.64375 3.94785L5.325 0.999726C5.21676 0.753178 5.03201 0.54803 4.7981 0.414644C4.5642 0.281257 4.29356 0.226719 4.02625 0.259101C3.11899 0.378284 2.28612 0.823646 1.68322 1.51201C1.08031 2.20037 0.748586 3.08466 0.750005 3.99973C0.750005 9.10035 4.89938 13.2497 10 13.2497C10.9151 13.2511 11.7994 12.9194 12.4877 12.3165C13.1761 11.7136 13.6214 10.8807 13.7406 9.97347C13.773 9.70616 13.7185 9.43553 13.5851 9.20162C13.4517 8.96772 13.2466 8.78297 13 8.67472ZM10 11.7497C7.94534 11.7472 5.97554 10.9299 4.52267 9.47706C3.0698 8.02419 2.25249 6.05439 2.25 3.99973C2.24857 3.48191 2.42437 2.97919 2.74818 2.57511C3.07199 2.17103 3.52432 1.88991 4.03 1.77848L5.20625 4.40348L4.00875 5.82973C3.9894 5.85279 3.97145 5.877 3.955 5.90223C3.83697 6.08257 3.76758 6.29037 3.75356 6.50545C3.73954 6.72053 3.78138 6.93559 3.875 7.12973C4.46375 8.33473 5.67688 9.53973 6.89438 10.1297C7.08982 10.2224 7.30595 10.2627 7.52165 10.2468C7.73736 10.231 7.94525 10.1594 8.125 10.0391C8.14914 10.0228 8.17231 10.005 8.19438 9.98597L9.59625 8.7941L12.2213 9.96972C12.1098 10.4754 11.8287 10.9277 11.4246 11.2515C11.0205 11.5754 10.5178 11.7512 10 11.7497Z" fill="white"/>
</svg>
