<svg width="60" height="61" viewBox="0 0 60 61" fill="none" xmlns="http://www.w3.org/2000/svg">
<path d="M22.5 5.5C15.95 5.5 10.625 10.825 10.625 17.375C10.625 23.8 15.65 29 22.2 29.225C22.4 29.2 22.6 29.2 22.75 29.225C22.8 29.225 22.825 29.225 22.875 29.225C22.9 29.225 22.9 29.225 22.925 29.225C29.325 29 34.35 23.8 34.375 17.375C34.375 10.825 29.05 5.5 22.5 5.5Z" fill="#F9781D"/>
<path d="M35.2 35.875C28.225 31.225 16.85 31.225 9.825 35.875C6.65 38 4.9 40.875 4.9 43.95C4.9 47.025 6.65 49.875 9.8 51.975C13.3 54.325 17.9 55.5 22.5 55.5C27.1 55.5 31.7 54.325 35.2 51.975C38.35 49.85 40.1 47 40.1 43.9C40.075 40.825 38.35 37.975 35.2 35.875Z" fill="#F9781D"/>
<path d="M49.975 18.85C50.375 23.7 46.925 27.95 42.15 28.525C42.125 28.525 42.125 28.525 42.1 28.525H42.025C41.875 28.525 41.725 28.525 41.6 28.575C39.175 28.7 36.95 27.925 35.275 26.5C37.85 24.2 39.325 20.75 39.025 17C38.85 14.975 38.15 13.125 37.1 11.55C38.05 11.075 39.15 10.775 40.275 10.675C45.175 10.25 49.55 13.9 49.975 18.85Z" fill="#F9781D"/>
<path d="M54.975 41.975C54.775 44.4 53.225 46.5 50.625 47.925C48.125 49.3 44.975 49.95 41.85 49.875C43.65 48.25 44.7 46.225 44.9 44.075C45.15 40.975 43.675 38 40.725 35.625C39.05 34.3 37.1 33.25 34.975 32.475C40.5 30.875 47.45 31.95 51.725 35.4C54.025 37.25 55.2 39.575 54.975 41.975Z" fill="#F9781D"/>
</svg>
