<svg width="50" height="50" viewBox="0 0 50 50" fill="none" xmlns="http://www.w3.org/2000/svg">
<path d="M45.3125 39.0625H42.1875V35.9375H43.75V29.6875H37.5V31.25H34.375V28.125C34.375 27.7106 34.5396 27.3132 34.8326 27.0201C35.1257 26.7271 35.5231 26.5625 35.9375 26.5625H45.3125C45.7269 26.5625 46.1243 26.7271 46.4174 27.0201C46.7104 27.3132 46.875 27.7106 46.875 28.125V37.5C46.875 37.9144 46.7104 38.3118 46.4174 38.6049C46.1243 38.8979 45.7269 39.0625 45.3125 39.0625Z" fill="#CF6418"/>
<path d="M37.5 46.875H28.125C27.7106 46.875 27.3132 46.7104 27.0201 46.4173C26.7271 46.1243 26.5625 45.7269 26.5625 45.3125V35.9375C26.5625 35.5231 26.7271 35.1257 27.0201 34.8326C27.3132 34.5396 27.7106 34.375 28.125 34.375H37.5C37.9144 34.375 38.3118 34.5396 38.6049 34.8326C38.8979 35.1257 39.0625 35.5231 39.0625 35.9375V45.3125C39.0625 45.7269 38.8979 46.1243 38.6049 46.4173C38.3118 46.7104 37.9144 46.875 37.5 46.875ZM29.6875 43.75H35.9375V37.5H29.6875V43.75ZM23.4375 31.0281C22.3085 30.7339 21.2846 30.129 20.4821 29.2821C19.6796 28.4352 19.1307 27.3803 18.8976 26.2371C18.6646 25.0939 18.7567 23.9082 19.1636 22.8148C19.5705 21.7213 20.2759 20.7639 21.1996 20.0511C22.1233 19.3384 23.2283 18.899 24.3892 18.7827C25.5501 18.6664 26.7204 18.878 27.7671 19.3934C28.8138 19.9088 29.695 20.7074 30.3106 21.6984C30.9263 22.6895 31.2517 23.8333 31.25 25H34.375C34.3768 23.2122 33.8674 21.4611 32.9068 19.9533C31.9462 18.4455 30.5745 17.2438 28.9535 16.4898C27.3324 15.7359 25.5295 15.4612 23.7575 15.6982C21.9855 15.9351 20.3181 16.6738 18.9521 17.8271C17.586 18.9805 16.5783 20.5004 16.0476 22.2076C15.5169 23.9148 15.4854 25.7382 15.9568 27.4627C16.4283 29.1872 17.383 30.741 18.7084 31.9408C20.0338 33.1406 21.6747 33.9364 23.4375 34.2344V31.0281Z" fill="#CF6418"/>
<path d="M45.1405 21.1719L41.5312 24.3438L39.3124 22.125L43.078 18.8125L39.3905 12.4375L34.0156 14.25C32.7559 13.2028 31.33 12.3736 29.7968 11.7969L28.6874 6.25H21.3124L20.2031 11.7969C18.6577 12.3579 17.224 13.1884 15.9687 14.25L10.6093 12.4375L6.9218 18.8125L11.1718 22.5469C10.8829 24.1643 10.8829 25.8201 11.1718 27.4375L6.9218 31.1875L10.6093 37.5625L15.9843 35.75C17.2439 36.7972 18.6698 37.6264 20.2031 38.2031L21.3124 43.75H23.4374V46.875H21.3124C20.5898 46.8744 19.8897 46.6234 19.3314 46.1648C18.773 45.7061 18.3908 45.0681 18.2499 44.3594L17.453 40.4219C16.7447 40.0786 16.0608 39.687 15.4062 39.25L11.6093 40.5312C11.2867 40.6373 10.9489 40.6901 10.6093 40.6875C10.0603 40.6918 9.52022 40.5491 9.04493 40.2744C8.56964 39.9997 8.17647 39.6028 7.90617 39.125L4.21867 32.75C3.85397 32.1235 3.71844 31.3896 3.83531 30.6741C3.95219 29.9586 4.31418 29.3061 4.8593 28.8281L7.8593 26.2031C7.82805 25.7969 7.81242 25.4062 7.81242 25C7.81242 24.5938 7.84367 24.2031 7.87492 23.8125L4.8593 21.1719C4.31418 20.6939 3.95219 20.0414 3.83531 19.3259C3.71844 18.6104 3.85397 17.8765 4.21867 17.25L7.90617 10.875C8.17647 10.3972 8.56964 10.0003 9.04493 9.72559C9.52022 9.45085 10.0603 9.30823 10.6093 9.3125C10.9489 9.3099 11.2867 9.36267 11.6093 9.46875L15.3905 10.75C16.0526 10.3162 16.7415 9.92483 17.453 9.57812L18.2499 5.64062C18.3908 4.93189 18.773 4.29389 19.3314 3.83523C19.8897 3.37656 20.5898 3.12558 21.3124 3.125H28.6874C29.41 3.12558 30.1101 3.37656 30.6685 3.83523C31.2269 4.29389 31.609 4.93189 31.7499 5.64062L32.5468 9.57812C33.2551 9.92142 33.939 10.313 34.5937 10.75L38.3905 9.46875C38.7132 9.36267 39.0509 9.3099 39.3905 9.3125C39.9395 9.30823 40.4796 9.45085 40.9549 9.72559C41.4302 10.0003 41.8234 10.3972 42.0937 10.875L45.7812 17.25C46.1459 17.8765 46.2814 18.6104 46.1645 19.3259C46.0477 20.0414 45.6857 20.6939 45.1405 21.1719Z" fill="#CF6418"/>
</svg>
