<svg width="60" height="61" viewBox="0 0 60 61" fill="none" xmlns="http://www.w3.org/2000/svg">
<path d="M42.075 39.6C43.75 38.5 45.95 39.7 45.95 41.7V44.925C45.95 48.1 43.475 51.5 40.5 52.5L32.525 55.15C31.125 55.625 28.85 55.625 27.475 55.15L19.5 52.5C16.5 51.5 14.05 48.1 14.05 44.925V41.675C14.05 39.7 16.25 38.5 17.9 39.575L23.05 42.925C25.025 44.25 27.525 44.9 30.025 44.9C32.525 44.9 35.025 44.25 37 42.925L42.075 39.6Z" fill="#F9781D"/>
<path d="M49.95 16.65L34.975 6.82499C32.275 5.04999 27.825 5.04999 25.125 6.82499L10.075 16.65C5.24999 19.775 5.24999 26.85 10.075 30L14.075 32.6L25.125 39.8C27.825 41.575 32.275 41.575 34.975 39.8L45.95 32.6L49.375 30.35V38C49.375 39.025 50.225 39.875 51.25 39.875C52.275 39.875 53.125 39.025 53.125 38V25.7C54.125 22.475 53.1 18.725 49.95 16.65Z" fill="#F9781D"/>
</svg>
