<svg width="50" height="50" viewBox="0 0 50 50" fill="none" xmlns="http://www.w3.org/2000/svg">
<path d="M21.25 11.25C21.25 10.2554 21.6451 9.30161 22.3483 8.59835C23.0516 7.89509 24.0054 7.5 25 7.5C25.9946 7.5 26.9484 7.89509 27.6517 8.59835C28.3549 9.30161 28.75 10.2554 28.75 11.25C28.75 12.2446 28.3549 13.1984 27.6517 13.9017C26.9484 14.6049 25.9946 15 25 15C24.0054 15 23.0516 14.6049 22.3483 13.9017C21.6451 13.1984 21.25 12.2446 21.25 11.25ZM25 5C23.3424 5 21.7527 5.65848 20.5806 6.83058C19.4085 8.00269 18.75 9.5924 18.75 11.25C18.75 12.9076 19.4085 14.4973 20.5806 15.6694C21.7527 16.8415 23.3424 17.5 25 17.5C26.6576 17.5 28.2473 16.8415 29.4194 15.6694C30.5915 14.4973 31.25 12.9076 31.25 11.25C31.25 9.5924 30.5915 8.00269 29.4194 6.83058C28.2473 5.65848 26.6576 5 25 5ZM36.25 12.5C36.25 11.837 36.5134 11.2011 36.9822 10.7322C37.4511 10.2634 38.087 10 38.75 10C39.413 10 40.0489 10.2634 40.5178 10.7322C40.9866 11.2011 41.25 11.837 41.25 12.5C41.25 13.163 40.9866 13.7989 40.5178 14.2678C40.0489 14.7366 39.413 15 38.75 15C38.087 15 37.4511 14.7366 36.9822 14.2678C36.5134 13.7989 36.25 13.163 36.25 12.5ZM38.75 7.5C37.4239 7.5 36.1521 8.02678 35.2145 8.96447C34.2768 9.90215 33.75 11.1739 33.75 12.5C33.75 13.8261 34.2768 15.0979 35.2145 16.0355C36.1521 16.9732 37.4239 17.5 38.75 17.5C40.0761 17.5 41.3479 16.9732 42.2855 16.0355C43.2232 15.0979 43.75 13.8261 43.75 12.5C43.75 11.1739 43.2232 9.90215 42.2855 8.96447C41.3479 8.02678 40.0761 7.5 38.75 7.5ZM11.25 10C10.587 10 9.95107 10.2634 9.48223 10.7322C9.01339 11.2011 8.75 11.837 8.75 12.5C8.75 13.163 9.01339 13.7989 9.48223 14.2678C9.95107 14.7366 10.587 15 11.25 15C11.913 15 12.5489 14.7366 13.0178 14.2678C13.4866 13.7989 13.75 13.163 13.75 12.5C13.75 11.837 13.4866 11.2011 13.0178 10.7322C12.5489 10.2634 11.913 10 11.25 10ZM6.25 12.5C6.25 11.1739 6.77678 9.90215 7.71447 8.96447C8.65215 8.02678 9.92392 7.5 11.25 7.5C12.5761 7.5 13.8479 8.02678 14.7855 8.96447C15.7232 9.90215 16.25 11.1739 16.25 12.5C16.25 13.8261 15.7232 15.0979 14.7855 16.0355C13.8479 16.9732 12.5761 17.5 11.25 17.5C9.92392 17.5 8.65215 16.9732 7.71447 16.0355C6.77678 15.0979 6.25 13.8261 6.25 12.5ZM12.5 37.5L12.75 37.495C12.9217 38.3433 13.175 39.1558 13.51 39.9325C12.4495 40.0766 11.3703 39.9921 10.3452 39.6846C9.31999 39.3771 8.37251 38.8537 7.56639 38.1497C6.76026 37.4456 6.11416 36.5772 5.6715 35.6027C5.22885 34.6282 4.99988 33.5703 5 32.5V23.125C5 21.4 6.4 20 8.125 20H13.4475C12.9469 20.7479 12.6339 21.6054 12.535 22.5H8.125C7.95924 22.5 7.80027 22.5658 7.68306 22.6831C7.56585 22.8003 7.5 22.9592 7.5 23.125V32.5C7.5 33.8261 8.02678 35.0979 8.96447 36.0355C9.90215 36.9732 11.1739 37.5 12.5 37.5ZM42.5 23.75C43.7532 24.6895 44.6079 26.0653 44.895 27.605L45 27.625V23.125C45 21.4 43.6 20 41.875 20H36.5525C37.0425 20.73 37.365 21.5825 37.465 22.5H41.875C42.0408 22.5 42.1997 22.5658 42.3169 22.6831C42.4342 22.8003 42.5 22.9592 42.5 23.125V23.75ZM38.75 25H33.75C32.7554 25 31.8016 25.3951 31.0983 26.0983C30.3951 26.8016 30 27.7554 30 28.75V30H28.75C27.7554 30 26.8016 30.3951 26.0983 31.0983C25.3951 31.8016 25 32.7554 25 33.75V37.5H30V36.25C30 35.9185 30.1317 35.6005 30.3661 35.3661C30.6005 35.1317 30.9185 35 31.25 35C31.5815 35 31.8995 35.1317 32.1339 35.3661C32.3683 35.6005 32.5 35.9185 32.5 36.25V37.5H40V36.25C40 35.9185 40.1317 35.6005 40.3661 35.3661C40.6005 35.1317 40.9185 35 41.25 35C41.5815 35 41.8995 35.1317 42.1339 35.3661C42.3683 35.6005 42.5 35.9185 42.5 36.25V37.5H47.5V33.75C47.5 32.7554 47.1049 31.8016 46.4016 31.0983C45.6984 30.3951 44.7446 30 43.75 30H42.5V28.75C42.5 27.7554 42.1049 26.8016 41.4016 26.0983C40.6984 25.3951 39.7446 25 38.75 25ZM18.125 22.5C17.9592 22.5 17.8003 22.5658 17.6831 22.6831C17.5658 22.8003 17.5 22.9592 17.5 23.125V35C17.5 38.265 19.5875 41.045 22.5 42.075V43.75C22.5 44.075 22.5242 44.3925 22.5725 44.7025C20.4092 44.1612 18.4888 42.9122 17.1168 41.1542C15.7447 39.3962 14.9996 37.23 15 35V23.125C15 21.4 16.4 20 18.125 20H31.875C33.3875 20 34.65 21.075 34.9375 22.5H18.125ZM32.5 30V28.75C32.5 28.4185 32.6317 28.1005 32.8661 27.8661C33.1005 27.6317 33.4185 27.5 33.75 27.5H38.75C39.0815 27.5 39.3995 27.6317 39.6339 27.8661C39.8683 28.1005 40 28.4185 40 28.75V30H32.5ZM42.5 40V41.25C42.5 41.5815 42.3683 41.8995 42.1339 42.1339C41.8995 42.3683 41.5815 42.5 41.25 42.5C40.9185 42.5 40.6005 42.3683 40.3661 42.1339C40.1317 41.8995 40 41.5815 40 41.25V40H32.5V41.25C32.5 41.5815 32.3683 41.8995 32.1339 42.1339C31.8995 42.3683 31.5815 42.5 31.25 42.5C30.9185 42.5 30.6005 42.3683 30.3661 42.1339C30.1317 41.8995 30 41.5815 30 41.25V40H25V43.75C25 44.7446 25.3951 45.6984 26.0983 46.4016C26.8016 47.1049 27.7554 47.5 28.75 47.5H43.75C44.7446 47.5 45.6984 47.1049 46.4016 46.4016C47.1049 45.6984 47.5 44.7446 47.5 43.75V40H42.5Z" fill="#CF6418"/>
</svg>
