<svg width="70" height="70" viewBox="0 0 70 70" fill="none" xmlns="http://www.w3.org/2000/svg">
<path d="M21.041 54.845C22.3544 54.845 23.6549 54.5863 24.8683 54.0837C26.0817 53.5811 27.1843 52.8444 28.113 51.9157M21.041 54.845C18.3885 54.845 15.8447 53.7913 13.9691 51.9157M21.041 54.845V62.3438M28.113 51.9157C29.0417 50.987 29.7784 49.8845 30.281 48.6711C30.7836 47.4577 31.0423 46.1571 31.0423 44.8438M28.113 51.9157L33.4164 57.2192M31.0423 44.8438C31.0423 43.5304 30.7836 42.2298 30.281 41.0164C29.7784 39.803 29.0417 38.7005 28.113 37.7718M31.0423 44.8438H38.541M28.113 37.7718C27.1843 36.8431 26.0817 36.1064 24.8683 35.6038C23.6549 35.1012 22.3544 34.8425 21.041 34.8425M28.113 37.7718L33.4164 32.4683M21.041 34.8425C18.3885 34.8425 15.8447 35.8962 13.9691 37.7718M21.041 34.8425V27.3438M13.9691 37.7718C12.0935 39.6474 11.0398 42.1913 11.0398 44.8438M13.9691 37.7718L8.66852 32.4683M11.0398 44.8438C11.0398 47.4963 12.0935 50.0401 13.9691 51.9157M11.0398 44.8438H3.54102M13.9691 51.9157L8.66852 57.2192M19.3756 27.3438H22.7093M32.2381 31.29L34.5948 33.6467M38.541 43.1783V46.5092M34.5948 56.0408L32.2381 58.3975M22.7093 62.3438H19.3756M9.84685 58.3975L7.49018 56.0408M3.54102 46.5092V43.1783M7.49018 33.6467L9.84685 31.29M66.4593 17.8646L57.8931 11.0104C55.177 8.8396 51.8035 7.65682 48.3264 7.65625H30.7302C29.7204 7.65536 28.7331 7.95417 27.8933 8.51482C27.0535 9.07547 26.3989 9.87275 26.0126 10.8057C25.6262 11.7386 25.5255 12.7652 25.723 13.7555C25.9205 14.7457 26.4075 15.6551 27.1223 16.3683C28.079 17.3257 29.3767 17.8639 30.7302 17.8646H43.9135" stroke="#E3312C" stroke-width="3" stroke-linecap="round" stroke-linejoin="round"/>
<path d="M65.9925 33.1771H55.7842C52.7589 33.177 49.8015 32.2809 47.285 30.6016L41.4517 26.7137C40.9009 26.3802 40.4234 25.9386 40.048 25.4155C39.6726 24.8923 39.4072 24.2985 39.2676 23.67C39.128 23.0414 39.1173 22.3911 39.236 21.7582C39.3547 21.1254 39.6005 20.5231 39.9584 19.9879C40.6023 19.0212 41.5773 18.3231 42.7 18.025C43.8226 17.7268 45.0155 17.8493 46.0542 18.3691L53.7104 22.9687" stroke="#E3312C" stroke-width="3" stroke-linecap="round" stroke-linejoin="round"/>
</svg>
