<svg width="12" height="12" viewBox="0 0 12 12" fill="none" xmlns="http://www.w3.org/2000/svg">
<path d="M6.01999 1.00003C3.28999 1.00003 1.06499 3.22503 1.06499 5.95503C1.06499 6.83003 1.29499 7.68003 1.72499 8.43003L1.02499 11L3.64999 10.31C4.37499 10.705 5.18999 10.915 6.01999 10.915C8.74999 10.915 10.975 8.69003 10.975 5.96003C10.975 4.63503 10.46 3.39003 9.52499 2.45503C9.06653 1.99208 8.52051 1.62501 7.91875 1.37521C7.31699 1.12541 6.67154 0.997868 6.01999 1.00003ZM6.02499 1.83503C7.12499 1.83503 8.15499 2.26503 8.93499 3.04503C9.31769 3.42779 9.62111 3.88228 9.82788 4.38249C10.0347 4.88269 10.1407 5.41877 10.14 5.96003C10.14 8.23003 8.28999 10.075 6.01999 10.075C5.27999 10.075 4.55499 9.88003 3.92499 9.50003L3.77499 9.41503L2.21499 9.82503L2.62999 8.30503L2.52999 8.14503C2.11727 7.48923 1.89883 6.72989 1.89999 5.95503C1.90499 3.68503 3.74999 1.83503 6.02499 1.83503ZM4.26499 3.66503C4.18499 3.66503 4.04999 3.69503 3.93499 3.82003C3.82499 3.94503 3.49999 4.25003 3.49999 4.85503C3.49999 5.46503 3.94499 6.05003 3.99999 6.13503C4.06999 6.22003 4.87999 7.47003 6.12499 8.00003C6.41999 8.13503 6.64999 8.21003 6.82999 8.26503C7.12499 8.36003 7.39499 8.34503 7.60999 8.31503C7.84999 8.28003 8.33999 8.01503 8.44499 7.72503C8.54999 7.43503 8.54999 7.19003 8.51999 7.13503C8.48499 7.08503 8.40499 7.05503 8.27999 7.00003C8.15499 6.93003 7.54499 6.63003 7.43499 6.59003C7.31999 6.55003 7.24999 6.53003 7.15499 6.65003C7.07499 6.77503 6.83499 7.05503 6.76499 7.13503C6.68999 7.22003 6.61999 7.23003 6.49999 7.17003C6.36999 7.10503 5.96999 6.97503 5.49999 6.55503C5.12999 6.22503 4.88499 5.82003 4.80999 5.69503C4.74999 5.57503 4.80499 5.50003 4.86499 5.44503C4.91999 5.39003 4.99999 5.30003 5.04999 5.22503C5.11499 5.15503 5.13499 5.10003 5.17499 5.02003C5.21499 4.93503 5.19499 4.86503 5.16499 4.80503C5.13499 4.75003 4.88499 4.13003 4.77999 3.88503C4.67999 3.64503 4.57999 3.67503 4.49999 3.67003C4.42999 3.67003 4.34999 3.66503 4.26499 3.66503Z" fill="#E3312C"/>
</svg>
